<svg version="1.2" xmlns="http://www.w3.org/2000/svg" viewBox="0 0 1000 1000" width="1000" height="1000">
	<title>toutiao-svg</title>
	<style>
		.s0 { fill: #333333 } 
	</style>
	<path id="Layer" fill-rule="evenodd" class="s0" d="m83.3 233.3c0-82.8 67.2-150 150-150h533.3c82.8 0 150 67.2 150 150v533.4c0 82.8-67.2 150-150 150h-533.3c-82.8 0-150-67.2-150-150zm148.2-143.7c-78.2 0-141.9 63.6-141.9 141.8v536.9c0 78.3 63.7 142 142 142h536.9c78.3 0 142-63.7 142-142v-536.9c0-78.3-63.7-141.9-142-141.9h-537z"/>
	<path id="Layer" fill-rule="evenodd" class="s0" d="m83.3 275.1l833.4-43.6v493.4l-833.4 43.6zm436.8 111.4c0 0 19.4 14.1 21.5 15.5 13.9 9.6 32.3 22.2 60.8 35.3-26.2 8.1-56.4 16-91.3 23.7v48.2c66.5-14.3 118.6-30.5 159.7-46.9 40.7 11.8 93.2 22.5 162.1 30.1v-48.2c-35.7-4.1-66.5-9.1-93.2-14.6 38.6-21.9 60.7-42 75.3-55.9v-7.3h0.1v-45.2h-0.1l-10.9 0.5-187 9.8-48.4-20zm73.9-8.6l155.8-8.1c-17.1 12.4-41.3 27.1-77.4 42.4-36.1-11.5-60.5-23.6-78.4-34.3zm-266.4 155.7l-160.8 8.4v45.1l129.7-6.7c-23.2 26.4-57.4 56-107.1 99.2l-1.6 1.3q-4.1 3.6-8.6 7.5l80.7-4.3c49.5-43.6 81.1-74.4 101.4-107.1l127.2-6.6v-45.2l-106.1 5.5c14-45.2 15.8-102.8 17-199.1l-51.2 2.7c-1.3 101-2.7 158.3-20.6 199.3zm-131.1-180.1v50.4l114 10.4v-50.5zm0 85.3v50.4l114 10.4v-50.4zm449 225.2l52.5-2.7v-101.9l135-7.1v-45.2l-135 7.1v-25.6l-52.5 2.6v25.8l-134.3 7v45.2l134.3-7zm-206.7-68.5l-61.9 3.2 49.7 76.7 61.9-3.2zm332.8 61.9l61.8-3.2-49.7-76.7-61.8 3.2zm-148.7-71.6l-61.9 3.3-49.7 81.9 61.9-3.2z"/>
</svg>