<svg version="1.2" xmlns="http://www.w3.org/2000/svg" viewBox="0 0 1000 1000" width="1000" height="1000">
	<title>9069656_xigua_icon-svg</title>
	<style>
		.s0 { opacity: 0;fill: #ffffff } 
		.s1 { fill: #2f88ff;stroke: #000000;stroke-linejoin: round;stroke-width: 76.4 } 
		.s2 { fill: #43ccf8;stroke: #ffffff;stroke-linejoin: round;stroke-width: 76.4 } 
	</style>
	<path id="Layer" class="s0" d="m0 0h1000v1000h-1000z"/>
	<path id="Layer" class="s1" d="m500 881.9c210.9 0 381.9-171 381.9-381.9 0-210.9-171-381.9-381.9-381.9-210.9 0-381.9 171-381.9 381.9 0 51.8 23.7 76.8 61.4 98.8 37.6 22.1 108.4 18.4 156.6 61.6 48.2 43.3 51.4 113.6 61.4 147.7 10 34.2 50.7 73.8 102.5 73.8z"/>
	<path id="Layer" class="s2" d="m406.8 386.3q-16.8 40.9-16.8 96.1 0 52.4 11.1 103.9c7.5 34.4 41.3 56.2 75.7 48.7q1.9-0.4 3.7-0.9 56.3-15.8 98-41.3 39-23.9 72.6-60.3c23.9-25.8 22.3-66.1-3.5-90q-1.1-1-2.2-1.9-39.6-33.3-82.9-59.8-45.2-27.7-88.5-33.4c-28.6-3.8-56.2 12.2-67.2 38.9z"/>
</svg>